<?xml version="1.0" encoding="iso-8859-1"?>
<!-- Generator: Adobe Illustrator 21.0.0, SVG Export Plug-In . SVG Version: 6.00 Build 0)  -->
<svg xmlns="http://www.w3.org/2000/svg" xmlns:xlink="http://www.w3.org/1999/xlink" version="1.1" id="Capa_1" x="0px" y="0px" viewBox="0 0 512 512" style="enable-background:new 0 0 512 512;" xml:space="preserve" width="512" height="512">
<g>
	<path d="M448.966,463.614l-81.298-186.463H144.31l-81.3,186.461c-5.044,11.568-0.29,25.314,10.825,31.294   c9.338,5.023,21.211,3.221,28.873-4.385c9.302-9.233,24.389-9.187,33.637,0.105C150.07,504.41,168.32,512,187.732,512   c19.417,0,37.666-7.591,51.39-21.376c4.507-4.529,10.497-7.024,16.866-7.024c6.37,0,12.361,2.495,16.872,7.026   C286.581,504.409,304.829,512,324.244,512c19.412,0,37.662-7.59,51.39-21.376c4.507-4.529,10.497-7.024,16.866-7.024   c6.37,0,12.361,2.495,16.871,7.025c8.292,8.332,21.343,9.553,31.024,2.908C450.037,486.923,453.642,474.34,448.966,463.614z"/>
	<polygon points="354.588,247.151 335.754,203.954 176.225,203.954 157.391,247.151  "/>
	<path d="M145.391,121.574c3.007,19.299,10.57,37.17,21.942,52.38h177.312c11.37-15.208,18.933-33.079,21.942-52.379l12.87-82.553   c1.516-9.758-1.281-19.66-7.677-27.167C365.362,4.321,356.013,0,346.132,0c-13.525,0-25.698,8.059-31.015,20.534   c-8.419,19.768-22.449,36.255-40.574,47.678c-11.272,7.102-25.839,7.102-37.108,0.001c-18.126-11.423-32.157-27.911-40.575-47.677   C191.549,8.061,179.375,0,165.844,0c-9.882,0-19.229,4.32-25.65,11.856c-6.393,7.511-9.189,17.412-7.671,27.168L145.391,121.574z"/>
</g>















</svg>
